<svg width="100" height="100" viewBox="0 0 100 100" fill="none" xmlns="http://www.w3.org/2000/svg"><path fill-rule="evenodd" clip-rule="evenodd" d="M49.955 0A49.953 49.953 0 0 0 .96 59.7 49.956 49.956 0 0 0 14.63 85.279 49.952 49.952 0 0 0 69.132 96.21 49.96 49.96 0 0 0 100 49.982a49.955 49.955 0 0 0-14.722-35.35A49.626 49.626 0 0 0 49.955 0zm0 95.525c-25.128 0-45.57-20.443-45.57-45.57s20.442-45.57 45.57-45.57c25.127 0 45.57 20.442 45.57 45.57s-20.443 45.57-45.57 45.57zM50.24 12C29.154 12 12 29.154 12 50.24c0 21.085 17.154 38.239 38.24 38.239 21.086 0 38.24-17.154 38.24-38.24 0-21.086-17.154-38.24-38.24-38.24zm0 72.095c-18.668 0-33.855-15.188-33.855-33.855 0-18.668 15.187-33.855 33.855-33.855S84.095 31.572 84.095 50.24 68.908 84.094 50.24 84.095zM39 33a3 3 0 0 0 0 6h23a3 3 0 0 0 0-6H39zm23 16h-8v14.5a3.5 3.5 0 1 1-7 0V49h-8a3 3 0 0 1 0-6h23a3 3 0 0 1 0 6z" fill="#C4C4C4"/><path fill-rule="evenodd" clip-rule="evenodd" d="M49.955 0A49.953 49.953 0 0 0 .96 59.7 49.956 49.956 0 0 0 14.63 85.279 49.952 49.952 0 0 0 69.132 96.21 49.96 49.96 0 0 0 100 49.982a49.955 49.955 0 0 0-14.722-35.35A49.626 49.626 0 0 0 49.955 0zm0 95.525c-25.128 0-45.57-20.443-45.57-45.57s20.442-45.57 45.57-45.57c25.127 0 45.57 20.442 45.57 45.57s-20.443 45.57-45.57 45.57zM50.24 12C29.154 12 12 29.154 12 50.24c0 21.085 17.154 38.239 38.24 38.239 21.086 0 38.24-17.154 38.24-38.24 0-21.086-17.154-38.24-38.24-38.24zm0 72.095c-18.668 0-33.855-15.188-33.855-33.855 0-18.668 15.187-33.855 33.855-33.855S84.095 31.572 84.095 50.24 68.908 84.094 50.24 84.095zM39 33a3 3 0 0 0 0 6h23a3 3 0 0 0 0-6H39zm23 16h-8v14.5a3.5 3.5 0 1 1-7 0V49h-8a3 3 0 0 1 0-6h23a3 3 0 0 1 0 6z" fill="url(#a)"/><defs><linearGradient id="a" x1="50" y1="100" x2="50" gradientUnits="userSpaceOnUse"><stop stop-color="#004778"/><stop offset="1" stop-color="#2C95DE"/></linearGradient></defs></svg>