<svg width="294" height="62" viewBox="0 0 294 62" fill="none" xmlns="http://www.w3.org/2000/svg"><g clip-path="url(#a)" fill="#004778"><path d="M262.524.868a30.133 30.133 0 0 1 20.181 7.803 30.026 30.026 0 0 1 3.967 40.132 30.114 30.114 0 0 1-18.264 11.591 30.147 30.147 0 0 1-21.333-3.636 30.066 30.066 0 0 1-13.378-16.984 30.016 30.016 0 0 1 1.489-21.556 30.088 30.088 0 0 1 15.588-14.99 30.078 30.078 0 0 1 11.75-2.36zm0-.868c-17.152 0-31.055 13.862-31.055 30.96 0 17.1 13.903 30.962 31.055 30.962s31.055-13.862 31.055-30.961C293.579 13.86 279.676 0 262.524 0z"/><path d="M262.615 3.41a27.514 27.514 0 0 1 18.43 7.117 27.415 27.415 0 0 1 3.636 36.641 27.494 27.494 0 0 1-16.673 10.59 27.524 27.524 0 0 1-19.479-3.314 27.454 27.454 0 0 1-12.22-15.503 27.405 27.405 0 0 1 1.354-19.683 27.47 27.47 0 0 1 14.229-13.69 27.451 27.451 0 0 1 10.723-2.158zm0-.868c-15.695 0-28.418 12.683-28.418 28.328s12.723 28.328 28.418 28.328c15.695 0 28.418-12.683 28.418-28.328S278.31 2.542 262.615 2.542z"/><path d="M262.524 9.766a21.333 21.333 0 0 1 14.292 5.518 21.26 21.26 0 0 1 2.822 28.415 21.321 21.321 0 0 1-12.929 8.213 21.345 21.345 0 0 1-15.106-2.568 21.29 21.29 0 0 1-9.478-12.023 21.252 21.252 0 0 1 1.05-15.264 21.31 21.31 0 0 1 19.349-12.29v-.001zm0-.866c-12.279-.002-22.234 9.916-22.234 22.152 0 12.235 9.955 22.154 22.234 22.154 12.28 0 22.234-9.919 22.234-22.154 0-12.236-9.954-22.154-22.234-22.154V8.9z"/><path d="M245.803 15.678l-.722-.26-.925 1.111.388.661-.291.35-1.706-2.972.309-.37 3.237 1.13-.29.35zm-1.859.483l.736-.885-1.588-.567.852 1.452zM248.081 13.471l-.382.358-2.067-.176 1.056 1.123-.312.296-2.199-2.34.311-.292.993 1.056-.015-1.972.381-.358.034 2.106 2.2.2zM250.271 11.856l-.422.31-2.032-.419.915 1.237-.344.252-1.909-2.585.343-.252.861 1.166.22-1.96.421-.31-.213 2.099 2.16.462zM250.033 8.295a1.028 1.028 0 0 1 .789-.106 1.019 1.019 0 0 1 .626.492.999.999 0 0 1 .101.785 1.001 1.001 0 0 1-.497.625l-.645.363.566.999-.371.21-1.582-2.792 1.013-.576zm.819 1.453a.596.596 0 0 0 .295-.373.643.643 0 0 0-.072-.48.67.67 0 0 0-.166-.199.558.558 0 0 0-.21-.11.611.611 0 0 0-.472.061l-.643.363.625 1.1.643-.362zM253.218 9.831l1.373-.583.158.376-1.767.75-1.257-2.953 1.745-.741.158.371-1.352.574.386.908 1.247-.53.156.368-1.246.527.399.933zM257.386 8.403l.331-.09.279.978-.411.117-.168-.59-2.041.58.17.59-.411.117-.28-.98.273-.075c.121-.296.114-.685-.023-1.167l-.462-1.618 1.974-.561.769 2.7zm-.411.117l-.66-2.315-1.152.332.353 1.24c.133.464.158.845.073 1.142l1.386-.399zM260.297 8.338l-.328-2.371-1.309 2.598-.341.047-.442-3.178.424-.058.329 2.375 1.308-2.602.342-.047.441 3.178-.424.058zM263.421 5.006l.006.404-.95.014.042 2.806-.426.006-.043-2.806-.946.015-.006-.404 2.323-.035zM263.718 6.593a1.652 1.652 0 0 1 1.512-1.455 1.655 1.655 0 0 1 1.652 2.306 1.66 1.66 0 0 1-1.868.959 1.654 1.654 0 0 1-.947-.586 1.598 1.598 0 0 1-.349-1.224zm2.884.322a1.216 1.216 0 0 0-.256-.923 1.171 1.171 0 0 0-.835-.454 1.19 1.19 0 0 0-.919.264 1.225 1.225 0 0 0-.45.846 1.254 1.254 0 0 0 .252.925 1.212 1.212 0 0 0 .841.454 1.184 1.184 0 0 0 .913-.259 1.22 1.22 0 0 0 .454-.853zM269.548 7.542c.122.1.214.231.267.38a.79.79 0 0 1 .014.474.867.867 0 0 1-.426.556.924.924 0 0 1-.707.087l-1.345-.35.808-3.106 1.247.323a.888.888 0 0 1 .674.73.84.84 0 0 1-.022.346.76.76 0 0 1-.51.56zm-.754 1.11a.494.494 0 0 0 .387-.056.492.492 0 0 0 .146-.132.556.556 0 0 0 .104-.392.484.484 0 0 0-.068-.191.48.48 0 0 0-.308-.237l-.93-.24-.262 1.007.931.24zm-.322-2.575l-.248.954.831.215c.062.017.128.02.192.01a.457.457 0 0 0 .309-.186.51.51 0 0 0 .085-.182.469.469 0 0 0-.051-.37.44.44 0 0 0-.287-.227l-.831-.214zM272.041 10.225l.026-.765-1.342-.539-.516.572-.422-.17 2.312-2.532.446.182-.091 3.425-.413-.173zm-1.031-1.619l1.07.43.053-1.683-1.123 1.253zM276.119 8.764l.372.211-1.588 2.792-.371-.21.714-1.257-1.358-.767-.714 1.257-.371-.21 1.588-2.795.372.21-.673 1.18 1.358.77.671-1.18zM279.009 10.805l.339.258-1.955 2.547-.336-.263.881-1.144-1.244-.944-.877 1.147-.34-.259 1.951-2.55.34.259-.83 1.08 1.241.946.83-1.077zM277.923 14.05l2.305-2.237.298.306-.824.8.517.53a1.031 1.031 0 0 1-.754 1.753 1.034 1.034 0 0 1-.727-.312l-.815-.84zm.585.029l.514.529a.617.617 0 0 0 .436.19c.08.001.159-.015.233-.047a.678.678 0 0 0 .215-.144.679.679 0 0 0 .15-.21.547.547 0 0 0 .054-.231.606.606 0 0 0-.178-.44l-.516-.53-.908.883zm1.182 1.783l2.306-2.236.297.306-2.309 2.236-.294-.306zM281.581 18.332l1.947-1.397-2.91.057-.201-.28 2.61-1.873.249.346-1.95 1.4 2.914-.06.201.278-2.61 1.874-.25-.345zm2.07-3.214l.283-.203.728 1.005-.284.203-.727-1.005zM284.122 22.226l.145.311-.924.434-.182-.387.558-.259-.894-1.92-.558.258-.182-.387.924-.43.118.255c.312.074.695.006 1.15-.205l1.525-.707.866 1.854-2.546 1.183zm-.182-.387l2.187-1.014-.505-1.085-1.17.544c-.439.205-.812.289-1.119.252l.607 1.303zM284.562 23.462l.455 1.418-.385.124-.587-1.825 3.061-.982.579 1.804-.381.123-.455-1.397-.939.301.414 1.289-.38.121-.411-1.285-.971.31zM288.143 26.02a.996.996 0 0 1-.148.784 1.052 1.052 0 0 1-1.44.287 1.014 1.014 0 0 1-.439-.667l-.145-.726-1.122.225-.091-.419 3.156-.626.229 1.142zm-1.636.324a.579.579 0 0 0 .261.397.65.65 0 0 0 .481.082.696.696 0 0 0 .24-.096.566.566 0 0 0 .171-.164.628.628 0 0 0 .091-.467l-.145-.726-1.243.249.144.725zM285.475 31.538l-.029-.485 1.469-1.303-1.539.09-.026-.425 1.541-.091-1.612-1.122-.028-.482 1.716 1.186 1.496-1.327.028.48-1.403 1.254 1.471-.09.025.425-1.472.09 1.541 1.081.028.486-1.637-1.15-1.569 1.383zM285.207 34.122l.743-.192.136-1.438-.691-.328.042-.454 3.092 1.492-.045.48-3.313.89.036-.45zm1.262-1.447l-.108 1.146 1.637-.427-1.529-.719zM287.851 37.38l-.396-.08.191-.93-2.752-.564.085-.419 2.751.568.191-.926.395.081-.465 2.27zM284.832 37.664l-.455 1.42-.385-.124.584-1.825 3.06.981-.58 1.804-.385-.124.451-1.396-.939-.302-.415 1.288-.38-.122.415-1.288-.971-.312zM284.282 39.354a.572.572 0 0 0-.1.257.407.407 0 0 0 .06.248.849.849 0 0 0 .241.242c.14.097.289.18.445.249l1.649.766-.889 1.92-2.916-1.35.182-.386 2.547 1.18.531-1.147-1.288-.596a2.612 2.612 0 0 1-.621-.379 1.068 1.068 0 0 1-.301-.387.684.684 0 0 1-.045-.39 1.19 1.19 0 0 1 .151-.39l.354.163zM283.551 44.376a1.012 1.012 0 0 1-.649.467 1.033 1.033 0 0 1-1.269-.988 1.025 1.025 0 0 1 .17-.58l.625-.987 2.717 1.714-.229.363-.97-.612-.395.623zm-1.409-.89a.616.616 0 0 0-.085.467.57.57 0 0 0 .1.215c.052.07.117.129.191.174a.63.63 0 0 0 .698-.003.57.57 0 0 0 .166-.178l.396-.625-1.072-.676-.394.625zM279.061 46.713l.287-.304.267.251c.339-.311.683-.492 1.031-.545a1.162 1.162 0 0 1 1.21.718c.063.156.091.325.082.493-.032.35-.194.704-.484 1.061l.268.252-.286.304-.273-.252c-.343.316-.686.497-1.031.545a1.15 1.15 0 0 1-1.285-1.206c.027-.346.189-.7.483-1.061l-.269-.256zm.546.515c-.222.271-.345.526-.37.764a.803.803 0 0 0 .258.635.81.81 0 0 0 .651.216c.237-.04.483-.178.74-.415l-1.279-1.2zm1.673-.5a.728.728 0 0 0-.647-.216c-.236.041-.481.18-.737.415l1.273 1.197c.22-.27.341-.525.364-.762a.736.736 0 0 0-.249-.634h-.004zM278.757 51.354a1.04 1.04 0 0 1-1.144.1 1.031 1.031 0 0 1-.53-1.017 1.023 1.023 0 0 1 .381-.692l.577-.463-.718-.894.333-.267 2.01 2.503-.909.73zm-1.044-1.299a.597.597 0 0 0-.232.415.64.64 0 0 0 .149.463c.054.068.12.126.195.17a.573.573 0 0 0 .466.053.619.619 0 0 0 .214-.114l.576-.462-.793-.987-.575.462zM274 50.736l.607.467 1.221-.776-.163-.747.383-.243.708 3.349-.407.259-2.737-2.066.388-.243zm1.918.107l-.973.617 1.339 1.026-.366-1.643zM272.817 54.896l-.387.182-1.351-2.913.388-.182.607 1.313 1.418-.654-.608-1.31.388-.182 1.35 2.913-.388.181-.57-1.238-1.42.654.573 1.236zM268.176 56.399l-.412.113-.852-3.095 3.535-.97.852 3.096-.413.114-.745-2.707-1.151.316.745 2.706-.412.114-.745-2.706-1.147.314.745 2.705zM264.234 53.699l.245 2.381 1.398-2.55.342-.036.33 3.193-.424.043-.247-2.385-1.399 2.555-.343.035-.33-3.192.428-.044zM261.559 55.385a.867.867 0 0 1-.383-.31.823.823 0 0 1-.135-.478.841.841 0 0 1 .319-.67 1.428 1.428 0 0 1 1.564-.042c.183.133.32.32.393.535l-.364.203c-.092-.363-.351-.545-.777-.545a.807.807 0 0 0-.52.144.479.479 0 0 0-.186.395.5.5 0 0 0 .169.4.703.703 0 0 0 .478.156h.377v.386h-.273a.706.706 0 0 0-.47.142.473.473 0 0 0-.182.378.486.486 0 0 0 .16.379.66.66 0 0 0 .455.146c.355 0 .594-.156.715-.467l.357.21c-.197.441-.555.66-1.075.657a1.088 1.088 0 0 1-.749-.264.842.842 0 0 1-.287-.654.766.766 0 0 1 .414-.701zM258.039 53.296l-.502 3.17-.422-.066.503-3.17.421.066zm2.5.395l-.503 3.17-.422-.066.182-1.133-.733-.115a1.01 1.01 0 0 1-.685-.41 1.056 1.056 0 0 1 .23-1.453 1.007 1.007 0 0 1 .778-.174l1.153.181zm-.485.328l-.727-.115a.606.606 0 0 0-.621.284.723.723 0 0 0-.08.503.575.575 0 0 0 .091.217.608.608 0 0 0 .407.245l.728.116.202-1.25zM251.813 54.596l-.398-.167 1.904-1.859c.173-.186.397-.319.644-.38.23-.04.467-.003.672.108l-.154.363a.667.667 0 0 0-.426-.097.76.76 0 0 0-.396.228l-.058.056.108 2.542-.398-.167-.074-2.017-1.424 1.39zM249.182 53.19l-.371-.212 1.601-2.783.37.212-.645 1.122c.273.02.537.101.774.237.246.127.435.343.527.603a.892.892 0 0 1-.091.74l-.572.994-.37-.212.558-.97a.554.554 0 0 0 .065-.444.646.646 0 0 0-.321-.363 1.803 1.803 0 0 0-.77-.235l-.755 1.311zM249.258 49.876l-1.199-.888.241-.324 1.545 1.142-1.917 2.582-1.523-1.127.24-.324 1.183.873.588-.792-1.091-.805.237-.32 1.091.805.605-.822zM244.212 49.29l.273-.296.698.644 1.91-2.062.314.29-1.91 2.061.695.641-.273.297-1.707-1.575zM262.751 12.774a18.281 18.281 0 0 1 12.245 4.732 18.22 18.22 0 0 1 2.411 24.349 18.29 18.29 0 0 1-24.024 4.83 18.24 18.24 0 0 1-8.118-10.305 18.213 18.213 0 0 1 .902-13.078 18.258 18.258 0 0 1 9.457-9.095 18.26 18.26 0 0 1 7.127-1.433zm0-1.334c-10.848 0-19.643 8.76-19.643 19.566 0 10.807 8.795 19.566 19.643 19.566s19.642-8.76 19.642-19.566-8.794-19.566-19.642-19.566z"/></g><g clip-path="url(#b)"><path d="M111.248 51.375v2.608h-3v-2.608c-3.32-.245-5.969-1.145-7.948-2.702a7.778 7.778 0 0 1-2.97-6.405 7.775 7.775 0 0 1 2.97-6.4c1.995-1.56 4.645-2.46 7.948-2.701v-2.608h3v2.608c3.345.236 5.997 1.137 7.955 2.701a7.748 7.748 0 0 1 3 6.4 7.76 7.76 0 0 1-3 6.405c-1.963 1.557-4.614 2.457-7.955 2.702zm-8.838-13.546a5.326 5.326 0 0 0-2.073 4.439 5.283 5.283 0 0 0 2.073 4.42c1.361 1.05 3.307 1.672 5.838 1.867V35.968c-2.527.174-4.473.795-5.838 1.861zm8.838-1.867v12.593c2.527-.18 4.476-.797 5.839-1.867a5.32 5.32 0 0 0 2.048-4.439 5.34 5.34 0 0 0-2.048-4.438c-1.361-1.05-3.307-1.664-5.839-1.843v-.006zM134.373 36.89a7.908 7.908 0 0 1 5.907 2.54 8.976 8.976 0 0 1 0 12.306 7.855 7.855 0 0 1-5.907 2.49 6.993 6.993 0 0 1-6.224-3.262v9.45h-2.87V37.35h2.87v2.839a6.982 6.982 0 0 1 6.224-3.3zm-.361 14.585a5.653 5.653 0 0 0 4.158-1.681 5.902 5.902 0 0 0 1.681-4.227 5.699 5.699 0 0 0-1.681-4.19 5.942 5.942 0 0 0-8.347 0 5.689 5.689 0 0 0-1.68 4.19 5.881 5.881 0 0 0 1.68 4.227 5.688 5.688 0 0 0 4.189 1.68zM159.811 40.158V37.35h2.87v16.496h-2.87v-2.863a6.951 6.951 0 0 1-6.224 3.262 7.863 7.863 0 0 1-5.907-2.49 8.976 8.976 0 0 1 0-12.307 7.923 7.923 0 0 1 5.907-2.54 6.945 6.945 0 0 1 6.224 3.25zm-5.875 11.317a5.679 5.679 0 0 0 4.189-1.681 5.863 5.863 0 0 0 1.686-4.227 5.795 5.795 0 0 0-3.609-5.472 5.801 5.801 0 0 0-2.266-.43 5.6 5.6 0 0 0-4.152 1.713 5.67 5.67 0 0 0-1.687 4.19 5.867 5.867 0 0 0 1.687 4.232 5.637 5.637 0 0 0 4.152 1.675zM178.447 44.198V37.35h2.869v16.496h-2.869v-6.922h-8.54v6.891h-2.876V37.35h2.876v6.848h8.54zM205.399 51.076V37.35h2.869v16.496h-22.594V37.35h2.869v13.757h7.028V37.35h2.869v13.757l6.959-.03zM215.488 48.904l9.144-11.554h2.309v16.496h-2.838v-11.61l-9.137 11.58h-2.31V37.35h2.832v11.554zM240.206 45.374c1.826.768 2.739 2.075 2.739 3.922a4.434 4.434 0 0 1-1.687 3.548c-1.12.934-2.67 1.4-4.649 1.4-3.299 0-5.509-1.319-6.63-3.958l2.409-1.42c.61 1.806 2.027 2.708 4.252 2.708.899.051 1.79-.191 2.539-.69a2.203 2.203 0 0 0 .928-1.868 2.024 2.024 0 0 0-.747-1.618 2.983 2.983 0 0 0-1.992-.623h-2.409v-2.577h1.78a2.861 2.861 0 0 0 1.948-.623 2.114 2.114 0 0 0 .691-1.668 2.076 2.076 0 0 0-.821-1.73 3.504 3.504 0 0 0-2.21-.623c-1.846 0-3.102.782-3.766 2.347l-2.34-1.358c1.166-2.415 3.201-3.624 6.106-3.629a6.33 6.33 0 0 1 4.239 1.37 4.364 4.364 0 0 1 1.6 3.424 4.012 4.012 0 0 1-1.98 3.667zM259.683 40.158V37.35h2.869v16.496h-2.869v-2.863a6.961 6.961 0 0 1-6.225 3.262 7.869 7.869 0 0 1-5.907-2.49 8.976 8.976 0 0 1 0-12.307 7.93 7.93 0 0 1 5.907-2.559 6.944 6.944 0 0 1 6.225 3.269zm-5.851 11.317a5.7 5.7 0 0 0 4.189-1.681 5.887 5.887 0 0 0 1.662-4.227 5.793 5.793 0 0 0-1.686-4.193 5.788 5.788 0 0 0-4.184-1.708 5.598 5.598 0 0 0-4.158 1.712 5.692 5.692 0 0 0-1.687 4.19 5.898 5.898 0 0 0 1.706 4.232 5.641 5.641 0 0 0 4.158 1.675z" fill="#004778"/><path fill-rule="evenodd" clip-rule="evenodd" d="M5.595 16.521h81.16v36.392a4.85 4.85 0 0 1-4.849 4.849H5.595a4.849 4.849 0 0 1-4.849-4.85V21.372a4.85 4.85 0 0 1 4.849-4.85z" fill="#76B2D0"/><path fill-rule="evenodd" clip-rule="evenodd" d="M5.595 16.521h81.16v36.392a4.85 4.85 0 0 1-4.849 4.849H5.595a4.849 4.849 0 0 1-4.849-4.85V21.372a4.85 4.85 0 0 1 4.849-4.85z" fill="url(#c)"/><path fill-rule="evenodd" clip-rule="evenodd" d="M96.838 12.126C98.47 9.96 99.254 6.225 97.984 0 81.962 2.49 85.398 11.149 86.929 13.857A55.4 55.4 0 0 1 95.22 3.822a61.137 61.137 0 0 0-5.515 9.78c2.16-2.49 4.694-2.621 7.133-1.476zm5.042 5.08c-7.02 7.918-10.787 3.536-12.187 1.158a18.67 18.67 0 0 1 6.772-.934 20.83 20.83 0 0 0-7.164-.903c.852-2.048 4.363-8.092 12.579.679z" fill="#85BC22"/><path fill-rule="evenodd" clip-rule="evenodd" d="M49.77 25.572h2.11v2.11h-2.11v-2.11zM19.55 38.794l5.24-13.222h3.486l-8.054 18.98c-1.183 2.783-2.733 4.016-5.602 4.128a11.683 11.683 0 0 1-4.357-.772V45.25c2.72.797 3.075.89 4.046.871 1.325 0 2.446-.71 3.734-3.685l-7.762-16.864h3.368l5.9 13.222zM42.4 48.68h-2.907v-6.144a15.283 15.283 0 0 1-3.916.504c-4.076 0-6.498-2.104-6.535-6.263v-5.03h2.894v5.149c0 2.527 1.245 3.629 3.642 3.629a15.283 15.283 0 0 0 3.915-.504v-8.273h2.906V48.68zm11.577 0c-5.428 0-8.054-3.561-8.054-8.522 0-4.358 2.807-8.398 7.68-8.398 6.075 0 7.227 4.439 7.227 9.263H48.599a5.267 5.267 0 0 0 5.471 5.285 5.75 5.75 0 0 0 4.7-2.11l1.867 1.326c-1.494 2.104-3.714 3.156-6.66 3.156zm-.374-14.635c-2.832 0-4.58 2.222-4.904 4.693h9.455c0-2.533-1.712-4.693-4.55-4.693zm23.61.056h-5.677V48.68h-2.894V34.1H63.04v-2.352h14.142v2.34l.03.013zm-22.315-8.51h2.11v2.11h-2.11v-2.11z" fill="#fff"/></g><defs><linearGradient id="c" x1="43.751" y1="57.762" x2="43.751" y2="16.521" gradientUnits="userSpaceOnUse"><stop stop-color="#004778"/><stop offset="1" stop-color="#2C95DE"/></linearGradient><clipPath id="a"><path fill="#fff" transform="translate(231.469)" d="M0 0h62.11v61.922H0z"/></clipPath><clipPath id="b"><path fill="#fff" transform="translate(.746)" d="M0 0h261.825v60.414H0z"/></clipPath></defs></svg>