<svg width="121" height="120" viewBox="0 0 121 120" fill="none" xmlns="http://www.w3.org/2000/svg"><path fill-rule="evenodd" clip-rule="evenodd" d="M99.55 89.235h8.513a2.229 2.229 0 0 1 2.046 1.404c.108.272.163.563.159.857v16.294a2.198 2.198 0 0 1-.64 1.567 2.19 2.19 0 0 1-1.565.643h-20.95a2.27 2.27 0 0 1-2.299-2.21V91.496a2.313 2.313 0 0 1 2.298-2.261h7.973v-12.95H63.156v12.95H71.4a2.272 2.272 0 0 1 2.251 2.26v16.295a2.234 2.234 0 0 1-.667 1.572 2.221 2.221 0 0 1-1.584.638H50.45a2.223 2.223 0 0 1-2.251-2.21V91.496a2.272 2.272 0 0 1 2.25-2.261h8.243v-12.95H26.762v12.95h7.973a2.312 2.312 0 0 1 2.298 2.26v16.295a2.268 2.268 0 0 1-2.298 2.21h-20.95a2.197 2.197 0 0 1-1.566-.643 2.193 2.193 0 0 1-.64-1.567V91.496a2.231 2.231 0 0 1 2.205-2.261h8.513V73.92c0-1.233.962-2.1 2.195-2.1h34.199V54.25l.002-.054.002-.036a22.136 22.136 0 1 1 4.457 0c.001.03.004.059.004.09v17.57h34.199c1.233 0 2.196.867 2.196 2.1v15.315zm-66.983 16.299V93.701H16.045v11.833h16.522zm13.664-83.217a17.67 17.67 0 0 0-2.978 9.818 17.69 17.69 0 0 0 17.67 17.67 17.671 17.671 0 1 0-14.692-27.488zm22.954 83.217V93.701H52.662v11.833h16.523zm20.095 0h16.522V93.701H89.28v11.833zM63.157 43.35v1.53a2.232 2.232 0 1 1-4.466 0v-1.53a7.284 7.284 0 0 1-5.04-6.92 2.233 2.233 0 0 1 4.466 0 2.807 2.807 0 1 0 2.807-2.808 7.28 7.28 0 0 1-2.233-14.204V18.11a2.233 2.233 0 0 1 4.466 0v1.31a7.295 7.295 0 0 1 5.04 6.93 2.232 2.232 0 1 1-4.466 0 2.813 2.813 0 1 0-2.807 2.808 7.272 7.272 0 0 1 2.233 14.193z" fill="url(#a)"/><path fill-rule="evenodd" clip-rule="evenodd" d="M99.55 89.235h8.513a2.229 2.229 0 0 1 2.046 1.404c.108.272.163.563.159.857v16.294a2.198 2.198 0 0 1-.64 1.567 2.19 2.19 0 0 1-1.565.643h-20.95a2.27 2.27 0 0 1-2.299-2.21V91.496a2.313 2.313 0 0 1 2.298-2.261h7.973v-12.95H63.156v12.95H71.4a2.272 2.272 0 0 1 2.251 2.26v16.295a2.234 2.234 0 0 1-.667 1.572 2.221 2.221 0 0 1-1.584.638H50.45a2.223 2.223 0 0 1-2.251-2.21V91.496a2.272 2.272 0 0 1 2.25-2.261h8.243v-12.95H26.762v12.95h7.973a2.312 2.312 0 0 1 2.298 2.26v16.295a2.268 2.268 0 0 1-2.298 2.21h-20.95a2.197 2.197 0 0 1-1.566-.643 2.193 2.193 0 0 1-.64-1.567V91.496a2.231 2.231 0 0 1 2.205-2.261h8.513V73.92c0-1.233.962-2.1 2.195-2.1h34.199V54.25l.002-.054.002-.036a22.136 22.136 0 1 1 4.457 0c.001.03.004.059.004.09v17.57h34.199c1.233 0 2.196.867 2.196 2.1v15.315zm-66.983 16.299V93.701H16.045v11.833h16.522zm13.664-83.217a17.67 17.67 0 0 0-2.978 9.818 17.69 17.69 0 0 0 17.67 17.67 17.671 17.671 0 1 0-14.692-27.488zm22.954 83.217V93.701H52.662v11.833h16.523zm20.095 0h16.522V93.701H89.28v11.833zM63.157 43.35v1.53a2.232 2.232 0 1 1-4.466 0v-1.53a7.284 7.284 0 0 1-5.04-6.92 2.233 2.233 0 0 1 4.466 0 2.807 2.807 0 1 0 2.807-2.808 7.28 7.28 0 0 1-2.233-14.204V18.11a2.233 2.233 0 0 1 4.466 0v1.31a7.295 7.295 0 0 1 5.04 6.93 2.232 2.232 0 1 1-4.466 0 2.813 2.813 0 1 0-2.807 2.808 7.272 7.272 0 0 1 2.233 14.193z" fill="url(#b)"/><defs><linearGradient id="a" x1="60.924" y1="6.372" x2="60.924" y2="111.548" gradientUnits="userSpaceOnUse"><stop stop-color="#00EFD1"/><stop offset="1" stop-color="#00ACEA"/></linearGradient><linearGradient id="b" x1="60.924" y1="110" x2="60.924" y2="10" gradientUnits="userSpaceOnUse"><stop stop-color="#004778"/><stop offset="1" stop-color="#2C95DE"/></linearGradient></defs></svg>