<svg width="101" height="50" viewBox="0 0 101 50" fill="none" xmlns="http://www.w3.org/2000/svg"><path fill-rule="evenodd" clip-rule="evenodd" d="M64.432 15.743H36.724a2.018 2.018 0 0 1-1.758-.971 1.988 1.988 0 0 1-.036-1.994l6.394-11.72A2.038 2.038 0 0 1 43.119 0h14.919a2.032 2.032 0 0 1 1.795 1.052l6.394 11.709a2.01 2.01 0 0 1-1.795 2.982zM56.824 4.089H44.332l-4.163 7.565h20.819l-4.164-7.565zm-4.843 25.72l6.394-11.74a2.077 2.077 0 0 1 1.795-1.1h14.92a2.086 2.086 0 0 1 1.794 1.109l6.394 11.765a2.089 2.089 0 0 1-1.794 3.074H53.776a2.085 2.085 0 0 1-1.758-1.043 2.126 2.126 0 0 1-.037-2.065zm26.058-.981l-4.163-7.77H61.384l-4.164 7.77h20.82zm-52.308 6.354a2.02 2.02 0 0 0-1.795-1.038H9.016a2.02 2.02 0 0 0-1.794 1.038L.828 46.89a2.024 2.024 0 0 0 1.795 2.996H30.33a2.038 2.038 0 0 0 2.045-1.992c.006-.352-.08-.7-.25-1.008l-6.394-11.705zM6.067 45.798l4.163-7.565h12.493l4.163 7.565H6.066zm53.012-11.383c.316.183.577.448.754.767l6.394 11.705a2.011 2.011 0 0 1-.037 2.005 2.039 2.039 0 0 1-1.758.995H36.725a2.023 2.023 0 0 1-1.795-2.996l6.394-11.71a2.02 2.02 0 0 1 1.795-1.037h14.92a2.02 2.02 0 0 1 1.04.27zm-14.747 3.818l-4.163 7.565h20.82l-4.164-7.565H44.331zm48.849-3.818c.316.183.576.448.754.767l6.394 11.705a2.015 2.015 0 0 1-.784 2.736 2.037 2.037 0 0 1-1.01.264H70.825a2.023 2.023 0 0 1-1.794-2.996l6.394-11.71a2.02 2.02 0 0 1 1.795-1.037H92.14a2.02 2.02 0 0 1 1.04.27zm-14.747 3.818l-4.163 7.565h20.82l-4.165-7.565H78.434zm-58.76-5.316h27.708a2.087 2.087 0 0 0 1.795-3.074l-6.395-11.765a2.086 2.086 0 0 0-1.794-1.108h-14.92a2.077 2.077 0 0 0-1.795 1.1L17.88 29.81a2.126 2.126 0 0 0 .037 2.064 2.085 2.085 0 0 0 1.758 1.043zm7.608-11.858h12.492l4.164 7.769h-20.82l4.164-7.77z" fill="url(#a)"/><path fill-rule="evenodd" clip-rule="evenodd" d="M64.432 15.743H36.724a2.018 2.018 0 0 1-1.758-.971 1.988 1.988 0 0 1-.036-1.994l6.394-11.72A2.038 2.038 0 0 1 43.119 0h14.919a2.032 2.032 0 0 1 1.795 1.052l6.394 11.709a2.01 2.01 0 0 1-1.795 2.982zM56.824 4.089H44.332l-4.163 7.565h20.819l-4.164-7.565zm-4.843 25.72l6.394-11.74a2.077 2.077 0 0 1 1.795-1.1h14.92a2.086 2.086 0 0 1 1.794 1.109l6.394 11.765a2.089 2.089 0 0 1-1.794 3.074H53.776a2.085 2.085 0 0 1-1.758-1.043 2.126 2.126 0 0 1-.037-2.065zm26.058-.981l-4.163-7.77H61.384l-4.164 7.77h20.82zm-52.308 6.354a2.02 2.02 0 0 0-1.795-1.038H9.016a2.02 2.02 0 0 0-1.794 1.038L.828 46.89a2.024 2.024 0 0 0 1.795 2.996H30.33a2.038 2.038 0 0 0 2.045-1.992c.006-.352-.08-.7-.25-1.008l-6.394-11.705zM6.067 45.798l4.163-7.565h12.493l4.163 7.565H6.066zm53.012-11.383c.316.183.577.448.754.767l6.394 11.705a2.011 2.011 0 0 1-.037 2.005 2.039 2.039 0 0 1-1.758.995H36.725a2.023 2.023 0 0 1-1.795-2.996l6.394-11.71a2.02 2.02 0 0 1 1.795-1.037h14.92a2.02 2.02 0 0 1 1.04.27zm-14.747 3.818l-4.163 7.565h20.82l-4.164-7.565H44.331zm48.849-3.818c.316.183.576.448.754.767l6.394 11.705a2.015 2.015 0 0 1-.784 2.736 2.037 2.037 0 0 1-1.01.264H70.825a2.023 2.023 0 0 1-1.794-2.996l6.394-11.71a2.02 2.02 0 0 1 1.795-1.037H92.14a2.02 2.02 0 0 1 1.04.27zm-14.747 3.818l-4.163 7.565h20.82l-4.165-7.565H78.434zm-58.76-5.316h27.708a2.087 2.087 0 0 0 1.795-3.074l-6.395-11.765a2.086 2.086 0 0 0-1.794-1.108h-14.92a2.077 2.077 0 0 0-1.795 1.1L17.88 29.81a2.126 2.126 0 0 0 .037 2.064 2.085 2.085 0 0 0 1.758 1.043zm7.608-11.858h12.492l4.164 7.769h-20.82l4.164-7.77z" fill="url(#b)"/><defs><linearGradient id="a" x1="50.578" y1="-22.899" x2="50.578" y2="74.421" gradientUnits="userSpaceOnUse"><stop stop-color="#00EFD1"/><stop offset="1" stop-color="#00ACEA"/></linearGradient><linearGradient id="b" x1="50.579" y1="49.887" x2="50.579" gradientUnits="userSpaceOnUse"><stop stop-color="#004778"/><stop offset="1" stop-color="#2C95DE"/></linearGradient></defs></svg>