<svg width="96" height="101" viewBox="0 0 96 101" fill="none" xmlns="http://www.w3.org/2000/svg"><path fill-rule="evenodd" clip-rule="evenodd" d="M93.282.63H42.551a1.983 1.983 0 0 0-2.006 2.055v37.724a1.961 1.961 0 0 0 2.006 2.027h7.448v8.923a2.08 2.08 0 0 0 1.12 1.87c.292.151.616.23.946.23.442-.013.87-.165 1.222-.433l14.638-10.59h25.357a2.035 2.035 0 0 0 2.095-2.027V2.685A2.057 2.057 0 0 0 93.282.63zm-2.107 37.604H67.247a2.07 2.07 0 0 0-1.205.434l-11.841 8.587V40.41a2.206 2.206 0 0 0-2.148-2.175h-7.306V4.831h46.428v33.403zM25.812 66.978A15.842 15.842 0 1 0 9.964 51.13a15.865 15.865 0 0 0 15.848 15.848zm0-27.483A11.64 11.64 0 1 1 14.166 51.13a11.653 11.653 0 0 1 11.646-11.635zM7.568 76.115a25.844 25.844 0 0 1 18.246-7.57A25.925 25.925 0 0 1 51.68 94.361v4.212a2.105 2.105 0 0 1-2.152 2.055H2.095A2.062 2.062 0 0 1 0 98.574v-4.212a25.844 25.844 0 0 1 7.568-18.247zM4.202 94.362v2.065h43.277v-2.065a21.638 21.638 0 0 0-43.277 0z" fill="url(#a)"/><path fill-rule="evenodd" clip-rule="evenodd" d="M93.282.63H42.551a1.983 1.983 0 0 0-2.006 2.055v37.724a1.961 1.961 0 0 0 2.006 2.027h7.448v8.923a2.08 2.08 0 0 0 1.12 1.87c.292.151.616.23.946.23.442-.013.87-.165 1.222-.433l14.638-10.59h25.357a2.035 2.035 0 0 0 2.095-2.027V2.685A2.057 2.057 0 0 0 93.282.63zm-2.107 37.604H67.247a2.07 2.07 0 0 0-1.205.434l-11.841 8.587V40.41a2.206 2.206 0 0 0-2.148-2.175h-7.306V4.831h46.428v33.403zM25.812 66.978A15.842 15.842 0 1 0 9.964 51.13a15.865 15.865 0 0 0 15.848 15.848zm0-27.483A11.64 11.64 0 1 1 14.166 51.13a11.653 11.653 0 0 1 11.646-11.635zM7.568 76.115a25.844 25.844 0 0 1 18.246-7.57A25.925 25.925 0 0 1 51.68 94.361v4.212a2.105 2.105 0 0 1-2.152 2.055H2.095A2.062 2.062 0 0 1 0 98.574v-4.212a25.844 25.844 0 0 1 7.568-18.247zM4.202 94.362v2.065h43.277v-2.065a21.638 21.638 0 0 0-43.277 0z" fill="url(#b)"/><defs><linearGradient id="a" x1="7855.36" y1="674.311" x2="7855.36" y2="15699.4" gradientUnits="userSpaceOnUse"><stop stop-color="#00EFD1"/><stop offset="1" stop-color="#00ACEA"/></linearGradient><linearGradient id="b" x1="47.688" y1="100.629" x2="47.688" y2=".629" gradientUnits="userSpaceOnUse"><stop stop-color="#004778"/><stop offset="1" stop-color="#2C95DE"/></linearGradient></defs></svg>