<svg width="73" height="101" viewBox="0 0 73 101" fill="none" xmlns="http://www.w3.org/2000/svg"><path fill-rule="evenodd" clip-rule="evenodd" d="M37.24 14.912a2.096 2.096 0 0 1-3.578-1.482V2.725a2.095 2.095 0 1 1 4.191 0V13.43c0 .556-.22 1.089-.613 1.482zm-.89 8.873c-.144 0-.289 0-.433.003-7.151.114-13.975 3.063-19.213 8.301-5.239 5.239-8.187 12.062-8.301 19.214-.116 7.406 2.572 14.443 7.57 19.685a19.976 19.976 0 0 1 5.49 14.554h-.806a2.095 2.095 0 1 0 0 4.19h31.46a2.095 2.095 0 1 0 0-4.19h-1.131c-.246-5.448 1.67-10.334 5.597-14.444a.097.097 0 0 0 .01-.028c.003-.013.006-.025.01-.028a28.247 28.247 0 0 0 7.66-19.252 27.989 27.989 0 0 0-27.911-28.005h-.002zm17.19 44.429c-4.624 4.845-6.974 10.832-6.746 17.328H25.656a24.239 24.239 0 0 0-6.65-17.447c-4.233-4.44-6.511-10.39-6.412-16.69.096-6.057 2.609-11.87 7.074-16.334 4.464-4.466 10.259-6.987 16.314-7.083a23.49 23.49 0 0 1 16.98 6.815 23.73 23.73 0 0 1 7.11 17.008 24.105 24.105 0 0 1-6.531 16.403zM46 96.438H26.772a2.096 2.096 0 0 0 0 4.191H46a2.095 2.095 0 1 0 0-4.19zm22.484-80.49l-7.865 7.428a2.096 2.096 0 0 0 2.877 3.047l7.864-7.428a2.097 2.097 0 0 0-.582-3.436 2.095 2.095 0 0 0-2.295.39zm-56.935 9.713a2.095 2.095 0 0 1-2.653-.273L1.358 17.74A2.096 2.096 0 1 1 4.343 14.8l7.537 7.647a2.096 2.096 0 0 1-.33 3.215z" fill="url(#a)"/><path fill-rule="evenodd" clip-rule="evenodd" d="M37.24 14.912a2.096 2.096 0 0 1-3.578-1.482V2.725a2.095 2.095 0 1 1 4.191 0V13.43c0 .556-.22 1.089-.613 1.482zm-.89 8.873c-.144 0-.289 0-.433.003-7.151.114-13.975 3.063-19.213 8.301-5.239 5.239-8.187 12.062-8.301 19.214-.116 7.406 2.572 14.443 7.57 19.685a19.976 19.976 0 0 1 5.49 14.554h-.806a2.095 2.095 0 1 0 0 4.19h31.46a2.095 2.095 0 1 0 0-4.19h-1.131c-.246-5.448 1.67-10.334 5.597-14.444a.097.097 0 0 0 .01-.028c.003-.013.006-.025.01-.028a28.247 28.247 0 0 0 7.66-19.252 27.989 27.989 0 0 0-27.911-28.005h-.002zm17.19 44.429c-4.624 4.845-6.974 10.832-6.746 17.328H25.656a24.239 24.239 0 0 0-6.65-17.447c-4.233-4.44-6.511-10.39-6.412-16.69.096-6.057 2.609-11.87 7.074-16.334 4.464-4.466 10.259-6.987 16.314-7.083a23.49 23.49 0 0 1 16.98 6.815 23.73 23.73 0 0 1 7.11 17.008 24.105 24.105 0 0 1-6.531 16.403zM46 96.438H26.772a2.096 2.096 0 0 0 0 4.191H46a2.095 2.095 0 1 0 0-4.19zm22.484-80.49l-7.865 7.428a2.096 2.096 0 0 0 2.877 3.047l7.864-7.428a2.097 2.097 0 0 0-.582-3.436 2.095 2.095 0 0 0-2.295.39zm-56.935 9.713a2.095 2.095 0 0 1-2.653-.273L1.358 17.74A2.096 2.096 0 1 1 4.343 14.8l7.537 7.647a2.096 2.096 0 0 1-.33 3.215z" fill="url(#b)"/><defs><linearGradient id="a" x1="1338.2" y1="202.282" x2="1338.2" y2="5782.83" gradientUnits="userSpaceOnUse"><stop stop-color="#00EFD1"/><stop offset="1" stop-color="#00ACEA"/></linearGradient><linearGradient id="b" x1="36.382" y1="100.629" x2="36.382" y2=".629" gradientUnits="userSpaceOnUse"><stop stop-color="#004778"/><stop offset="1" stop-color="#2C95DE"/></linearGradient></defs></svg>