<svg width="101" height="69" viewBox="0 0 101 69" fill="none" xmlns="http://www.w3.org/2000/svg"><path fill-rule="evenodd" clip-rule="evenodd" d="M9.277 68.371h82.939c4.703 0 8.53-3.826 8.53-8.53V9.16c0-4.704-3.827-8.53-8.53-8.53H9.276C4.574.63.747 4.455.747 9.16v50.68c0 4.705 3.827 8.531 8.53 8.531zM3.972 9.16a5.31 5.31 0 0 1 5.305-5.305h82.939A5.31 5.31 0 0 1 97.52 9.16v50.68a5.31 5.31 0 0 1-5.304 5.305H9.276a5.31 5.31 0 0 1-5.304-5.304V9.16zm15.232 50.61c-.45 0-.898-.188-1.217-.554l-2.905-3.336-2.906 3.336a1.61 1.61 0 0 1-2.276.157 1.613 1.613 0 0 1-.157-2.276l3.2-3.672-3.2-3.672a1.613 1.613 0 0 1 0-2.12l3.2-3.671-3.2-3.672a1.613 1.613 0 0 1 0-2.119l3.2-3.672-3.2-3.672a1.613 1.613 0 0 1 0-2.119l3.199-3.67-3.199-3.672a1.613 1.613 0 0 1 0-2.12l3.2-3.67-3.2-3.672a1.613 1.613 0 0 1 2.433-2.12l2.906 3.336 2.905-3.335a1.612 1.612 0 1 1 2.433 2.12l-3.199 3.67 3.198 3.671c.53.608.53 1.512 0 2.12l-3.198 3.671 3.199 3.672c.529.607.529 1.512 0 2.12l-3.199 3.67 3.198 3.671c.53.608.53 1.512 0 2.12l-3.199 3.672 3.2 3.672c.529.608.529 1.512 0 2.12l-3.199 3.671 3.199 3.672a1.613 1.613 0 0 1-1.216 2.672zm-2.14-11.077l-1.982 2.276-1.983-2.276 1.982-2.276 1.983 2.276zm0-9.463l-1.983 2.276-1.982-2.275 1.983-2.276 1.982 2.275zm0-9.461l-1.982 2.275-1.983-2.276 1.982-2.275 1.983 2.276zm0-9.463l-1.983 2.276-1.982-2.276 1.983-2.276 1.982 2.276zm42.213 16.44c-4.921 0-8.925-4.004-8.925-8.925 0-4.92 4.004-8.924 8.925-8.924 4.92 0 8.925 4.003 8.925 8.924 0 4.921-4.004 8.925-8.925 8.925zm-6.257 4.798a1.614 1.614 0 0 0 1.34-2.935 11.888 11.888 0 0 1-6.936-10.788c0-.89-.722-1.613-1.613-1.613H35.842a1.613 1.613 0 1 0 0 3.226h8.443c.087.805.239 1.596.45 2.366h-4.377a1.613 1.613 0 1 0 0 3.226h5.68a15.097 15.097 0 0 0 6.982 6.518zm1.11 8.56a1.613 1.613 0 0 1-1.311-2.55l5.145-7.204a1.613 1.613 0 0 1 1.313-.675c6.527 0 11.84-5.305 11.852-11.83v-.024c0-.89.722-1.613 1.613-1.613h9.969a1.613 1.613 0 1 1 0 3.226h-8.442c-.086.81-.237 1.6-.446 2.366h4.372a1.613 1.613 0 1 1 0 3.226H72.52c-2.432 4.454-7.047 7.553-12.397 7.85l-4.68 6.553a1.61 1.61 0 0 1-1.314.675z" fill="url(#a)"/><defs><linearGradient id="a" x1="50.746" y1="68.371" x2="50.746" y2=".629" gradientUnits="userSpaceOnUse"><stop stop-color="#004778"/><stop offset="1" stop-color="#2C95DE"/></linearGradient></defs></svg>