<svg width="40" height="40" viewBox="0 0 40 40" fill="none" xmlns="http://www.w3.org/2000/svg"><path fill-rule="evenodd" clip-rule="evenodd" d="M20 40c11.046 0 20-8.954 20-20S31.046 0 20 0 0 8.954 0 20s8.954 20 20 20zm11.553-24.78a8.45 8.45 0 0 0-.541-2.866 5.965 5.965 0 0 0-3.407-3.406 8.545 8.545 0 0 0-2.827-.544c-1.245-.055-1.64-.07-4.798-.07-3.159 0-3.564 0-4.8.07a8.545 8.545 0 0 0-2.826.544 5.959 5.959 0 0 0-3.406 3.406 8.478 8.478 0 0 0-.542 2.826c-.055 1.246-.072 1.64-.072 4.8 0 3.158 0 3.562.072 4.798.02.968.202 1.923.542 2.83a5.964 5.964 0 0 0 3.408 3.404c.902.353 1.858.55 2.826.582 1.246.056 1.64.072 4.8.072 3.158 0 3.563 0 4.798-.072a8.523 8.523 0 0 0 2.828-.542 5.97 5.97 0 0 0 3.406-3.406c.34-.905.523-1.86.542-2.829.056-1.244.072-1.639.072-4.799v-.043c-.002-3.12-.002-3.523-.075-4.755zm-11.58 10.733a5.979 5.979 0 0 1-5.981-5.98 5.979 5.979 0 0 1 10.209-4.229 5.98 5.98 0 0 1-4.229 10.209zm6.217-10.787a1.393 1.393 0 0 1-.986-2.38 1.395 1.395 0 1 1 .986 2.38zm-6.217 8.691a3.885 3.885 0 1 0 0-7.769 3.885 3.885 0 0 0 0 7.77z" fill="#fff"/></svg>