<svg width="24" height="24" viewBox="0 0 24 24" fill="none" xmlns="http://www.w3.org/2000/svg"><path fill-rule="evenodd" clip-rule="evenodd" d="M12 24c6.627 0 12-5.373 12-12S18.627 0 12 0 0 5.373 0 12s5.373 12 12 12zm6.932-14.868a5.068 5.068 0 0 0-.325-1.72 3.578 3.578 0 0 0-2.044-2.043 5.127 5.127 0 0 0-1.697-.326C14.12 5.009 13.883 5 11.988 5c-1.896 0-2.139 0-2.88.043a5.127 5.127 0 0 0-1.696.326A3.576 3.576 0 0 0 5.37 7.412a5.087 5.087 0 0 0-.326 1.696c-.033.748-.043.984-.043 2.88 0 1.895 0 2.137.043 2.88a5.12 5.12 0 0 0 .326 1.696 3.579 3.579 0 0 0 2.044 2.043 5.11 5.11 0 0 0 1.696.35c.747.033.984.043 2.88.043 1.895 0 2.138 0 2.879-.044a5.115 5.115 0 0 0 1.696-.325 3.58 3.58 0 0 0 2.044-2.043 5.114 5.114 0 0 0 .325-1.698c.034-.746.044-.983.044-2.88v-.025c-.002-1.872-.002-2.114-.045-2.853zm-6.95 6.44a3.587 3.587 0 1 1 0-7.175 3.587 3.587 0 0 1 0 7.175zM15.715 9.1a.836.836 0 1 1-.002-1.672.836.836 0 0 1 .002 1.672zm-3.731 5.215a2.33 2.33 0 1 0 0-4.662 2.33 2.33 0 0 0 0 4.662z" fill="#303030"/></svg>