<svg width="142" height="30" viewBox="0 0 142 30" fill="none" xmlns="http://www.w3.org/2000/svg"><path d="M41.34 5.462c0-2.007.416-3.408 1.248-4.2.832-.793 2.307-1.19 4.427-1.19h1.988c2.142 0 3.623.392 4.443 1.173.82.782 1.231 2.187 1.231 4.217V10.8c0 2.015-.418 3.417-1.252 4.206-.834.789-2.31 1.184-4.422 1.184h-1.988c-2.12 0-3.596-.395-4.427-1.184-.832-.79-1.247-2.191-1.247-4.206V5.462zm7.145-3.751h-.972c-1.107 0-1.888.06-2.346.18a2.94 2.94 0 0 0-1.183.603c-.31.268-.529.629-.656 1.083-.127.455-.19 1.235-.19 2.341v4.46c0 1.099.063 1.873.19 2.32.127.448.345.805.656 1.072.33.282.726.482 1.183.603.458.12 1.24.18 2.346.18h.972c1.107 0 1.892-.06 2.358-.18.465-.12.863-.321 1.194-.603.303-.26.516-.61.64-1.046.123-.437.184-1.22.184-2.346v-4.48c0-1.106-.063-1.887-.19-2.34-.127-.455-.345-.816-.656-1.085a2.88 2.88 0 0 0-1.172-.586c-.46-.118-1.245-.176-2.358-.176zM57.965 15.998V.264h7.102c1.768 0 2.985.263 3.65.788.666.525 1 1.46 1 2.805v2.378c0 .824-.168 1.471-.502 1.94-.335.467-.844.762-1.527.881.746.177 1.271.497 1.574.962.304.464.455 1.198.455 2.198V16H67.9v-3.245c0-1.127-.178-1.89-.534-2.288-.356-.398-1.051-.596-2.087-.596H59.7v6.129h-1.734zm6.753-14.066h-5.02v6.299h5.02c1.31 0 2.168-.162 2.574-.486.405-.323.608-.905.608-1.743V4.164c0-.852-.196-1.438-.587-1.755-.393-.318-1.257-.477-2.595-.477zM71.438 15.998L77.249.264h2.865L85.958 16h-1.797l-1.5-4.027h-7.958L73.235 16h-1.797zm3.847-5.58H82.1l-3.139-8.486h-.56l-3.117 8.486zM87.184 15.998v-1.88L97.297 1.826h-9.66V.262h11.499v1.839l-10.05 12.248h10.05v1.648H87.184V16zM102.18 15.998V.264h7.323c1.691 0 2.813.257 3.365.772.553.515.83 1.564.83 3.149 0 1.22-.136 2.072-.407 2.562-.272.49-.749.826-1.432 1.01.83.21 1.411.586 1.738 1.124.327.539.491 1.446.491 2.721 0 1.733-.343 2.9-1.025 3.498-.683.599-2.054.898-4.11.898h-6.773V16zm1.713-8.94h5.674c.923 0 1.543-.166 1.86-.497.317-.331.476-1.06.476-2.187 0-1.078-.169-1.755-.507-2.029-.339-.274-1.202-.412-2.589-.412h-4.914v5.125zm0 7.292h5.738c1.042 0 1.745-.16 2.103-.48.36-.322.539-1.155.539-2.5 0-1.134-.201-1.87-.603-2.204-.401-.335-1.445-.502-3.129-.502h-4.65v5.686h.002zM115.654 15.998L121.466.264h2.864L130.175 16h-1.797l-1.5-4.027h-7.958L117.451 16h-1.797zm3.846-5.58h6.816l-3.138-8.486h-.56l-3.118 8.486zM135.501 15.998h-1.711V9.034L127.279.262h2.05l5.305 7.335 5.305-7.335H142l-6.499 8.74v6.996zM41.594 22.202c0-1.456.28-2.47.837-3.04.557-.57 1.541-.857 2.952-.857h1.33c1.4 0 2.383.246 2.948.738s.848 1.325.848 2.502v.497H49.21v-.314c0-.86-.176-1.448-.527-1.764-.351-.316-1.04-.473-2.063-.473h-.878c-.687 0-1.188.041-1.502.126a1.782 1.782 0 0 0-.782.424 1.562 1.562 0 0 0-.44.76c-.084.313-.126.885-.126 1.715v3.24c0 .825.042 1.394.126 1.707.085.314.23.567.44.76.209.2.462.34.76.425.298.084.805.126 1.524.126h.878c1.05 0 1.747-.166 2.093-.498.346-.33.52-.965.52-1.902 0-.142-.001-.252-.004-.329a5.043 5.043 0 0 0-.011-.214h1.291v.75c0 1.263-.274 2.141-.822 2.634-.547.495-1.539.742-2.975.742h-1.329c-1.41 0-2.395-.286-2.952-.856-.558-.57-.837-1.585-.837-3.04V22.2zM52.282 22.202c0-1.451.301-2.464.901-3.037.6-.573 1.668-.86 3.2-.86h1.437c1.548 0 2.619.284 3.213.849.592.565.89 1.58.89 3.048v3.858c0 1.456-.303 2.47-.906 3.04-.604.571-1.668.857-3.196.857h-1.436c-1.533 0-2.6-.286-3.2-.856-.602-.57-.902-1.585-.902-3.04V22.2zm5.164-2.712h-.702c-.8 0-1.366.044-1.697.13a2.132 2.132 0 0 0-.856.435 1.55 1.55 0 0 0-.473.782c-.092.329-.137.893-.137 1.693v3.224c0 .795.045 1.353.137 1.677.092.323.25.581.473.775.24.204.525.349.856.436.331.086.896.13 1.697.13h.702c.799 0 1.368-.044 1.704-.13a2.13 2.13 0 0 0 .863-.436c.22-.189.373-.44.462-.756.09-.316.133-.881.133-1.697v-3.24c0-.798-.045-1.363-.137-1.692a1.558 1.558 0 0 0-.473-.783 2.081 2.081 0 0 0-.848-.424c-.331-.082-.9-.124-1.704-.124zM64.299 29.818V18.443h1.94l6.166 10.152V18.443h1.253v11.375h-1.94l-6.166-10.167v10.167H64.3zM76.11 26.113h1.268v.214c0 .677.05 1.177.152 1.498.102.32.27.547.505.68.184.101.466.174.848.217.383.043 1.17.066 2.361.066.647 0 1.15-.042 1.505-.126.356-.085.622-.22.794-.41.097-.101.169-.274.214-.52a5.56 5.56 0 0 0 .07-.992c0-.846-.086-1.377-.256-1.593-.171-.217-.508-.345-1.012-.387l-3.506-.274c-1.05-.082-1.775-.344-2.177-.787-.403-.443-.604-1.189-.604-2.239 0-.662.066-1.194.199-1.597.132-.402.346-.736.641-1 .23-.204.55-.347.963-.432.413-.084 1.142-.126 2.185-.126h.405c1.167 0 1.987.057 2.464.168.476.112.875.306 1.196.58.219.184.381.444.484.783.105.338.157.76.157 1.265 0 .148-.002.26-.004.34-.003.079-.007.148-.012.21h-1.268v-.284c0-.418-.024-.737-.073-.959-.048-.221-.126-.385-.233-.492-.157-.157-.44-.268-.845-.332-.405-.064-1.172-.096-2.303-.096-1.171 0-1.907.133-2.207.398-.3.264-.45.794-.45 1.59 0 .652.098 1.1.294 1.347.196.247.574.394 1.134.44l3.575.298c.938.082 1.595.34 1.971.775.376.436.565 1.163.565 2.181 0 .744-.048 1.303-.144 1.677a2.208 2.208 0 0 1-.481.936c-.276.31-.646.528-1.111.653-.466.125-1.316.188-2.548.188h-.565c-1.05 0-1.79-.053-2.226-.16a2.455 2.455 0 0 1-1.089-.558c-.285-.244-.496-.575-.63-.993-.135-.418-.203-.948-.203-1.59v-.557h-.004zM87.469 18.444h1.268v7.464c0 .734.04 1.245.119 1.535.079.291.215.525.409.703.204.183.446.312.73.386.283.074.77.11 1.463.11h1.192c.697 0 1.19-.036 1.475-.11.286-.074.53-.203.734-.386.189-.173.32-.406.397-.695.077-.29.115-.804.115-1.543v-7.464h1.269v7.616c0 1.451-.287 2.465-.86 3.037-.573.573-1.586.86-3.037.86h-1.375c-1.451 0-2.465-.287-3.037-.86-.573-.573-.86-1.586-.86-3.037v-7.616h-.002zM99.28 29.818V18.443h1.236v10.183h6.448v1.192h-7.685zM104.483 19.65v-1.206h8.518v1.207h-3.637v10.167h-1.261V19.651h-3.62zM114.199 29.818V18.443h1.269v11.375h-1.269zM118.218 29.818V18.443h1.94l6.166 10.152V18.443h1.253v11.375h-1.942l-6.165-10.167v10.167h-1.252zM129.905 22.202c0-1.451.301-2.464.901-3.037.601-.573 1.665-.86 3.193-.86h1.444c1.4 0 2.432.238 3.098.715.665.476.997 1.218.997 2.228v.48h-1.299v-.137c0-.784-.199-1.33-.595-1.638-.397-.308-1.157-.462-2.277-.462h-1c-.779 0-1.339.044-1.68.13a2.129 2.129 0 0 0-.871.435 1.51 1.51 0 0 0-.462.756c-.09.316-.134.884-.134 1.704v3.24c0 .815.044 1.38.134 1.696.089.316.243.568.462.757.239.204.524.348.855.435.331.087.897.13 1.697.13h1c.724 0 1.235-.038 1.536-.115.301-.077.56-.206.779-.39.204-.172.347-.41.431-.71.085-.3.126-.814.126-1.543v-.702h-3.155V24.16h4.454v1.903c0 1.456-.301 2.47-.901 3.04-.602.57-1.665.856-3.193.856h-1.443c-1.528 0-2.593-.285-3.193-.856-.602-.57-.901-1.584-.901-3.04v-3.861h-.003z" fill="#303030"/><path d="M37.009 29.898L25.182 8.774 17.777 22l4.422 7.898h14.81zM20.643 29.898l-3.645-6.508-3.644 6.508h7.289zM16.625 0L0 29.898h11.634L22.442 10.39 16.625 0z" fill="#0064AA"/></svg>