<svg width="14" height="14" viewBox="0 0 14 14" fill="none" xmlns="http://www.w3.org/2000/svg"><path d="M10.062 14a3.9 3.9 0 0 1-1.338-.24 14.27 14.27 0 0 1-5.182-3.302A14.27 14.27 0 0 1 .239 5.276a3.872 3.872 0 0 1-.198-1.903A3.964 3.964 0 0 1 2.082.466 3.898 3.898 0 0 1 3.95 0c.206 0 .384.144.428.346l.686 3.204a.438.438 0 0 1-.118.401L3.772 5.125a11.516 11.516 0 0 0 5.103 5.103l1.174-1.173a.438.438 0 0 1 .4-.118l3.205.686a.437.437 0 0 1 .346.428c0 .663-.157 1.291-.466 1.867a3.979 3.979 0 0 1-2.907 2.04 3.889 3.889 0 0 1-.565.042zM3.599.894a3.03 3.03 0 0 0-2.167 1.291 3.014 3.014 0 0 0-.37 2.793 13.27 13.27 0 0 0 7.96 7.96 3.014 3.014 0 0 0 2.793-.37 3.03 3.03 0 0 0 1.29-2.167L10.5 9.842l-1.225 1.225a.437.437 0 0 1-.496.087 12.387 12.387 0 0 1-5.932-5.932.437.437 0 0 1 .087-.496l1.225-1.225L3.599.894z" fill="#303030"/></svg>